<svg width="29" height="29" viewBox="0 0 29 29" fill="none" xmlns="http://www.w3.org/2000/svg">
<circle cx="14.5" cy="14.5" r="14" stroke="white"/>
<path d="M18.8494 21.1168H10.3533C9.88061 21.1167 9.4142 21.0105 8.98964 20.8063C8.56507 20.6021 8.19356 20.3053 7.90344 19.9385C7.61333 19.5717 7.41227 19.1447 7.3156 18.6899C7.21894 18.2351 7.22922 17.7647 7.34566 17.3144L9.06753 10.4054C9.09855 10.2819 9.17167 10.1726 9.27472 10.0956C9.37778 10.0186 9.50455 9.97863 9.63394 9.98233H19.1212C19.2462 9.97671 19.3695 10.0119 19.472 10.0824C19.5744 10.1529 19.6503 10.2547 19.6877 10.372L21.8287 17.1418C21.975 17.6016 22.0088 18.0889 21.9271 18.564C21.8454 19.039 21.6506 19.4884 21.3586 19.8753C21.0713 20.2639 20.6937 20.5794 20.2572 20.7953C19.8207 21.0113 19.338 21.1215 18.8494 21.1168ZM10.0587 11.0958L8.42183 17.5816C8.34894 17.8678 8.3431 18.1665 8.40475 18.4552C8.4664 18.7439 8.59394 19.015 8.77774 19.2482C8.96154 19.4814 9.19681 19.6706 9.46581 19.8014C9.73481 19.9322 10.0305 20.0012 10.3306 20.0034H18.8267C19.135 20.0039 19.4389 19.9325 19.7136 19.795C19.9884 19.6576 20.226 19.4581 20.407 19.2128C20.5932 18.9662 20.7175 18.6798 20.7696 18.3769C20.8218 18.0741 20.8004 17.7634 20.7072 17.4703L18.7134 11.0958H10.0587Z" fill="white"/>
<path d="M16.8557 14.4361C16.7055 14.4361 16.5614 14.3775 16.4552 14.2731C16.349 14.1687 16.2893 14.0271 16.2893 13.8794V9.42562C16.2893 8.98266 16.1103 8.55785 15.7916 8.24463C15.473 7.93141 15.0407 7.75545 14.5901 7.75545C14.1394 7.75545 13.7072 7.93141 13.3886 8.24463C13.0699 8.55785 12.8909 8.98266 12.8909 9.42562V13.8794C12.8909 14.0271 12.8312 14.1687 12.725 14.2731C12.6188 14.3775 12.4747 14.4361 12.3245 14.4361C12.1742 14.4361 12.0302 14.3775 11.924 14.2731C11.8177 14.1687 11.7581 14.0271 11.7581 13.8794V9.42562C11.7581 8.68736 12.0564 7.97933 12.5875 7.4573C13.1186 6.93527 13.839 6.642 14.5901 6.642C15.3412 6.642 16.0615 6.93527 16.5926 7.4573C17.1237 7.97933 17.4221 8.68736 17.4221 9.42562V13.8794C17.4221 14.0271 17.3624 14.1687 17.2562 14.2731C17.15 14.3775 17.0059 14.4361 16.8557 14.4361Z" fill="white"/>
</svg>
