<svg width="29" height="29" viewBox="0 0 29 29" fill="none" xmlns="http://www.w3.org/2000/svg">
<path d="M4.83333 14.5H8.45833H20.5417H24.1667C24.8917 14.5 25.375 14.0167 25.375 13.2917C25.375 12.5667 24.8917 12.0833 24.1667 12.0833H21.5083L19.6958 5.07499C19.3333 3.50416 18.0042 2.41666 16.4333 2.41666C16.1917 2.41666 15.95 2.53749 15.8292 2.65832L15.4667 2.89999C14.9833 3.26249 14.3792 3.26249 13.8958 2.89999L13.2917 2.65832C13.05 2.53749 12.8083 2.41666 12.5667 2.41666C10.9958 2.41666 9.66667 3.50416 9.30417 5.07499L7.49167 12.0833H4.83333C4.10833 12.0833 3.625 12.5667 3.625 13.2917C3.625 14.0167 4.10833 14.5 4.83333 14.5ZM11.6 5.55832C11.7208 5.19582 11.9625 4.95416 12.325 4.83332C13.6542 5.67916 15.225 5.67916 16.5542 4.83332C16.9167 4.95416 17.1583 5.19582 17.2792 5.55832L18.125 8.45832H10.875L11.6 5.55832ZM10.2708 10.875H18.6083L18.9708 12.0833H10.0292L10.2708 10.875Z" fill="white"/>
<path d="M20.5417 15.7083C18.2458 15.7083 16.4333 17.2791 15.8292 19.3333H13.05C12.5667 17.2791 10.6333 15.7083 8.33748 15.7083C5.67915 15.7083 3.50415 17.8833 3.50415 20.5416C3.50415 23.2 5.67915 25.375 8.33748 25.375C10.6333 25.375 12.4458 23.8041 13.05 21.75H15.8292C16.3125 23.8041 18.2458 25.375 20.5417 25.375C23.2 25.375 25.375 23.2 25.375 20.5416C25.375 17.8833 23.2 15.7083 20.5417 15.7083ZM8.45832 22.9583C7.12915 22.9583 6.04165 21.8708 6.04165 20.5416C6.04165 19.2125 7.12915 18.125 8.45832 18.125C9.78748 18.125 10.875 19.2125 10.875 20.5416C10.875 21.8708 9.78748 22.9583 8.45832 22.9583ZM20.5417 22.9583C19.2125 22.9583 18.125 21.8708 18.125 20.5416C18.125 19.2125 19.2125 18.125 20.5417 18.125C21.8708 18.125 22.9583 19.2125 22.9583 20.5416C22.9583 21.8708 21.8708 22.9583 20.5417 22.9583Z" fill="white"/>
</svg>
